<svg xmlns="http://www.w3.org/2000/svg" viewBox="0 0 160 92" role="img" aria-label="WingsMaster">
  <defs>
    <linearGradient id="g" x1="0" x2="1" y1="0" y2="1">
      <stop offset="0" stop-color="#ffd45a"/>
      <stop offset="0.5" stop-color="#ff9d19"/>
      <stop offset="1" stop-color="#e33b24"/>
    </linearGradient>
    <filter id="s" x="-20%" y="-20%" width="140%" height="140%">
      <feDropShadow dx="0" dy="4" stdDeviation="4" flood-color="#4b0909" flood-opacity=".28"/>
    </filter>
  </defs>
  <path d="M9 31h56c6 0 10 5 8 11-1 4-5 7-9 7H14c-5 0-9-4-9-9 0-5 4-9 9-9Z" fill="#ffd45a" filter="url(#s)"/>
  <path d="M0 52h59c6 0 10 5 8 11-1 4-5 7-9 7H9c-5 0-9-4-9-9 0-5 4-9 9-9Z" fill="#ffad22" filter="url(#s)"/>
  <path d="M22 11h54c6 0 10 5 8 11-1 4-5 7-9 7H28c-5 0-9-4-9-9 0-5 4-9 9-9Z" fill="#ffe588" filter="url(#s)"/>
  <circle cx="92" cy="46" r="38" fill="#fff7ea" stroke="#ffd45a" stroke-width="6" filter="url(#s)"/>
  <path d="M103 23c16 8 22 28 13 43-8 13-24 18-39 13 10-8 12-17 9-25-3-9-12-14-20-15 8-13 23-21 37-16Z" fill="url(#g)"/>
  <path d="M86 43c9-13 22-19 40-18-5 5-9 11-11 18 10 1 19 5 26 13-17 5-34 2-48-8l-7-5Z" fill="#fff"/>
  <path d="M89 41c11 10 23 15 39 14-11 9-27 14-44 6-10-5-16-14-18-22 8 1 16 1 23 2Z" fill="#b61c1c"/>
</svg>
