<svg xmlns="http://www.w3.org/2000/svg" viewBox="0 0 720 300" role="img" aria-label="Mapa de entrega en Medellin">
  <rect width="720" height="300" rx="20" fill="#fff4df"/>
  <path d="M0 98c82-18 133 28 204 8 92-26 126-86 226-65 102 21 147 90 290 55v204H0Z" fill="#e6f3d5"/>
  <g stroke="#ead3a5" stroke-width="7" fill="none">
    <path d="M28 44c128 57 220 43 339 26 105-15 209-2 325 45"/>
    <path d="M22 178c110-58 210-64 319-43 126 24 215 16 352-35"/>
    <path d="M126 0c-8 71 7 132 41 194 20 36 23 66 12 106"/>
    <path d="M332 0c38 80 57 166 56 300"/>
    <path d="M530 0c-24 100-20 198 20 300"/>
  </g>
  <g stroke="#f6e3c2" stroke-width="3" fill="none" opacity=".9">
    <path d="M0 67h720M0 128h720M0 222h720M74 0v300M228 0v300M460 0v300M635 0v300"/>
  </g>
  <path d="M373 123c0 42-47 92-47 92s-47-50-47-92a47 47 0 1 1 94 0Z" fill="#e93624"/>
  <circle cx="326" cy="123" r="20" fill="#fff"/>
  <path d="M178 230c-7-30 25-56 57-41 30 14 28 59-5 71-22 8-45-7-52-30Z" fill="#ef3e29"/>
  <path d="M160 244h92" stroke="#7b1111" stroke-width="10" stroke-linecap="round"/>
  <circle cx="184" cy="250" r="16" fill="#2b2b2b"/>
  <circle cx="236" cy="250" r="16" fill="#2b2b2b"/>
  <circle cx="184" cy="250" r="6" fill="#eee"/>
  <circle cx="236" cy="250" r="6" fill="#eee"/>
  <path d="M188 207c-17-32-42-36-56-22" stroke="#7b1111" stroke-width="8" stroke-linecap="round" fill="none"/>
</svg>
