<svg xmlns="http://www.w3.org/2000/svg" viewBox="0 0 720 360">
  <defs>
    <linearGradient id="bg" x1="0" x2="1" y1="0" y2="1"><stop stop-color="#fff0c8"/><stop offset="1" stop-color="#ffd28b"/></linearGradient>
    <radialGradient id="sauce" cx=".45" cy=".35" r=".65"><stop stop-color="#ffb03a"/><stop offset=".65" stop-color="#d95113"/><stop offset="1" stop-color="#962113"/></radialGradient>
  </defs>
  <rect width="720" height="360" fill="url(#bg)"/>
  <ellipse cx="350" cy="300" rx="250" ry="34" fill="#b65b25" opacity=".23"/>
  <path d="M118 182h356l-42 104H158z" fill="#c72219"/>
  <path d="M144 160h306l24 22H118z" fill="#ffefe1"/>
  <g stroke="#bb3d16" stroke-width="10">
    <circle cx="210" cy="184" r="48" fill="url(#sauce)"/>
    <circle cx="285" cy="164" r="55" fill="url(#sauce)"/>
    <circle cx="365" cy="190" r="46" fill="url(#sauce)"/>
    <circle cx="260" cy="235" r="50" fill="url(#sauce)"/>
    <circle cx="340" cy="242" r="49" fill="url(#sauce)"/>
  </g>
  <g transform="translate(500 72)">
    <rect x="46" y="28" width="58" height="168" rx="24" fill="#c51f1c"/>
    <rect x="55" y="0" width="40" height="42" rx="11" fill="#ff3327"/>
    <ellipse cx="75" cy="118" rx="58" ry="31" fill="#fff7e8"/>
    <path d="M38 108c26 28 49 28 74 0v28c-25 24-50 24-74 0z" fill="#ffd857"/>
    <ellipse cx="75" cy="202" rx="55" ry="16" fill="#9a2017" opacity=".4"/>
  </g>
</svg>
